<?xml version="1.0" encoding="iso-8859-1"?>
<!-- Generator: Adobe Illustrator 19.0.0, SVG Export Plug-In . SVG Version: 6.00 Build 0)  -->
<svg version="1.1" id="Layer_1" xmlns="http://www.w3.org/2000/svg" xmlns:xlink="http://www.w3.org/1999/xlink" x="0px" y="0px"
	 viewBox="0 0 512 512" style="enable-background:new 0 0 512 512;" xml:space="preserve">
<g>
	<polygon style="fill:#DDCCFF;" points="224,335.936 192,367.968 128,432 80,432 80,351.936 160,271.936 	"/>
	<polygon style="fill:#DDCCFF;" points="432,287.936 432,432 128,432 192,367.968 224,335.952 352,207.952 	"/>
</g>
<g>
	<path style="fill:#5A5A80;" d="M48,512h416c26.512,0,47.936-21.552,48-48.064v-416C511.936,21.44,490.512,0,464,0H48
		C21.488,0,0.064,21.44,0,47.936v416C0.064,490.448,21.488,512,48,512z M32,47.936C32.016,39.248,39.312,32,48,32h416
		c8.688,0,15.984,7.248,16,15.936v416C479.984,472.64,472.688,480,464,480H48c-8.688,0-15.984-7.36-16-16.064V47.936z"/>
	<path style="fill:#5A5A80;" d="M80,448h48h304c4.208,0,8.336-1.728,11.312-4.72S448,436.16,448,431.936v-144c0,0,0,0,0-0.016v-208
		c0-4.208-1.712-8.304-4.688-11.28C440.336,65.68,436.208,64,432,64H80c-4.208,0-8.336,1.68-11.312,4.656S64,75.728,64,79.936v272
		v80c0,4.208,1.712,8.368,4.688,11.344C71.664,446.272,75.792,448,80,448z M416,416H166.624l36.688-36.72l32-32.016L352,230.576
		l64,64V416z M96,96h320v153.312l-52.688-52.688c-6.256-6.256-16.384-6.256-22.624,0L224,313.312l-52.688-52.688
		c-6.256-6.256-16.384-6.256-22.624,0L96,313.312V96z M96,358.576l64-64l41.376,41.376l-20.688,20.72L121.376,416H96V358.576z"/>
	<path style="fill:#5A5A80;" d="M224,175.936c-0.064-26.512-21.488-47.936-48-48c-26.512,0.064-47.936,21.504-48,48
		c0.064,26.512,21.488,47.936,48,48C202.512,223.872,223.936,202.448,224,175.936z M160,175.936c0.016-8.688,7.312-15.984,16-16
		c8.688,0.016,15.984,7.312,16,16c-0.016,8.688-7.312,15.984-16,16C167.312,191.92,160.016,184.64,160,175.936z"/>
</g>
<g>
</g>
<g>
</g>
<g>
</g>
<g>
</g>
<g>
</g>
<g>
</g>
<g>
</g>
<g>
</g>
<g>
</g>
<g>
</g>
<g>
</g>
<g>
</g>
<g>
</g>
<g>
</g>
<g>
</g>
</svg>
